<?xml version="1.0" encoding="UTF-8"?>
<svg width="143px" height="100px" viewBox="0 0 143 100" version="1.1" xmlns="http://www.w3.org/2000/svg" xmlns:xlink="http://www.w3.org/1999/xlink">
    <!-- Generator: Sketch 58 (84663) - https://sketch.com -->
    <title>white_logo</title>
    <desc>Created with Sketch.</desc>
    <g id="Foozi" stroke="none" stroke-width="1" fill="none" fill-rule="evenodd">
        <g id="Splash" transform="translate(-116.000000, -329.000000)" fill="#FFFFFF">
            <g id="white_logo" transform="translate(116.000000, 329.000000)">
                <path d="M36.5847458,20.1016949 C48.5662558,20.1016949 54.4460709,27.7565485 54.4460709,39.6271186 L54.4460709,79.7873652 C54.4460709,91.5469954 48.5662558,99.3127889 36.5847458,99.3127889 C24.7141757,99.3127889 18.8343606,91.5469954 18.8343606,79.7873652 L18.833416,64.9206949 L8.92372881,64.9214176 L8.92372881,89.8828968 C8.92372881,94.5750969 5.18910871,98.3950297 0.530178566,98.5323852 L0.270416025,98.5362096 L0.270416025,30.8782743 C0.270416025,25.3554268 4.74756853,20.8782743 10.270416,20.8782743 L30.5690182,20.8777304 C32.366481,20.3678038 34.3714838,20.1016949 36.5847458,20.1016949 Z M79.7403698,20.1016949 C81.9741896,20.1016949 83.9959178,20.3677736 85.8069921,20.8776435 L123.912943,20.8782743 C123.912943,26.001485 122.866742,31.0707336 120.838458,35.7753432 L97.1764253,90.6594761 L123.691063,90.6594761 C123.691063,95.0096759 120.164529,98.5362096 115.81433,98.5362096 L85.7757979,98.5362761 C83.9727112,99.0459427 81.961373,99.3127889 79.7403698,99.3127889 C67.8697997,99.3127889 61.9899846,91.5469954 61.9899846,79.7873652 L61.9899846,39.6271186 C61.9899846,27.7565485 67.8697997,20.1016949 79.7403698,20.1016949 Z M140.332049,20.8782743 L140.332049,98.5362096 L131.678737,98.5362096 L131.678737,20.8782743 L140.332049,20.8782743 Z M36.5847458,27.9784284 C30.3721109,27.9784284 27.3767334,32.1941448 27.3767334,39.183359 L27.3767334,80.2311248 C27.3767334,87.3312789 30.3721109,91.4360555 36.5847458,91.4360555 C42.9083205,91.4360555 45.7927581,87.3312789 45.7927581,80.2311248 L45.7927581,39.183359 C45.7927581,32.1941448 42.9083205,27.9784284 36.5847458,27.9784284 Z M79.7403698,27.9784284 C73.527735,27.9784284 70.5323575,32.1941448 70.5323575,39.183359 L70.5323575,80.2311248 C70.5323575,87.3312789 73.527735,91.4360555 79.7403698,91.4360555 C86.0639445,91.4360555 88.9483821,87.3312789 88.9483821,80.2311248 L88.9483821,39.183359 C88.9483821,32.1941448 86.0639445,27.9784284 79.7403698,27.9784284 Z M115.03775,28.7550077 L95.3797467,28.7548017 C96.86433,31.7484098 97.6016949,35.4234259 97.6016949,39.6271186 L97.601416,69.3646949 L115.03775,28.7550077 Z M21.051382,28.7548017 L13.9237288,28.7550077 C11.1623051,28.7550077 8.92372881,30.993584 8.92372881,33.7550077 L8.92372881,57.0446841 L18.833416,57.0436949 L18.8343606,39.6271186 C18.8343606,35.4234259 19.5717254,31.7484098 21.051382,28.7548017 Z" id="Combined-Shape"></path>
                <ellipse id="Oval-5" cx="37.527893" cy="70.4169651" rx="6.51787756" ry="7.31801178"></ellipse>
                <ellipse id="Oval-5" cx="79.1303583" cy="70.4169651" rx="6.51787756" ry="7.31801178"></ellipse>
                <ellipse id="Oval-5" cx="136.005393" cy="7.64611572" rx="6.51787756" ry="7.31801178"></ellipse>
            </g>
        </g>
    </g>
</svg>