<?xml version="1.0" encoding="UTF-8"?>
<svg width="281px" height="280px" viewBox="0 0 281 280" version="1.1" xmlns="http://www.w3.org/2000/svg" xmlns:xlink="http://www.w3.org/1999/xlink">
    <!-- Generator: Sketch 58 (84663) - https://sketch.com -->
    <title>img</title>
    <desc>Created with Sketch.</desc>
    <defs>
        <circle id="path-1" cx="140.576132" cy="140" r="140"></circle>
        <polygon id="path-3" points="0.288702151 0.0537628889 107.681981 0.0537628889 107.681981 43.6511543 0.288702151 43.6511543"></polygon>
    </defs>
    <g id="Foozi" stroke="none" stroke-width="1" fill="none" fill-rule="evenodd">
        <g id="Onboading_1" transform="translate(-47.000000, -266.000000)">
            <g id="img" transform="translate(47.000000, 266.000000)">
                <mask id="mask-2" fill="white">
                    <use xlink:href="#path-1"></use>
                </mask>
                <use id="Mask" fill="#E0FAF2" xlink:href="#path-1"></use>
                <g id="Page-1" mask="url(#mask-2)" fill="#EFFFFA">
                    <g transform="translate(-8.401367, 34.109922)" id="Fill-1">
                        <path d="M258.24949,18.2917135 C256.417026,18.2917135 254.722669,18.8761249 253.332148,19.8603202 C250.824413,15.0832658 245.823479,11.821029 240.054234,11.821029 C237.540683,11.821029 235.176143,12.4461457 233.095086,13.539373 C232.362391,5.94129786 225.962941,-0.000218063956 218.172243,-0.000218063956 C210.87655,-0.000218063956 204.804195,5.21151049 203.459468,12.1139616 C202.505801,11.9235191 201.520152,11.821029 200.510516,11.821029 C192.228447,11.821029 185.514985,18.5344913 185.514985,26.8172873 C185.514985,35.0993563 192.228447,41.8128186 200.510516,41.8128186 C203.810551,41.8128186 206.852543,40.7341289 209.329023,38.9278325 C212.062818,42.5993026 216.42337,44.9892836 221.352342,44.9892836 C225.859724,44.9892836 229.892454,42.990364 232.64224,39.8422474 C234.829422,41.0903001 237.355329,41.8128186 240.054234,41.8128186 C245.823479,41.8128186 250.824413,38.5505819 253.332148,33.7735275 C254.722669,34.7577228 256.417026,35.3421342 258.24949,35.3421342 C262.958218,35.3421342 266.775064,31.5252881 266.775064,26.8172873 C266.775064,22.1085596 262.958218,18.2917135 258.24949,18.2917135"></path>
                        <path d="M73.3989889,40.7864643 C71.5665248,40.7864643 69.8721679,41.3708757 68.4816467,42.355071 C65.9739112,37.5780166 60.9729778,34.3157798 55.2037324,34.3157798 C52.6901819,34.3157798 50.3256417,34.9408965 48.2445847,36.0341238 C47.5118898,28.4360487 41.1124396,22.4945328 33.3217413,22.4945328 C26.0260482,22.4945328 19.9536939,27.7062613 18.6089662,34.6087124 C17.6552998,34.4182699 16.6696508,34.3157798 15.6600146,34.3157798 C7.37794558,34.3157798 0.664483253,41.0292422 0.664483253,49.3120381 C0.664483253,57.5941071 7.37794558,64.3075695 15.6600146,64.3075695 C18.9600492,64.3075695 22.0020414,63.2288798 24.478521,61.4225833 C27.2123161,65.0940535 31.5728684,67.4840344 36.5018407,67.4840344 C41.0092226,67.4840344 45.0419521,65.4851148 47.7917386,62.3369982 C49.97892,63.5850509 52.5048275,64.3075695 55.2037324,64.3075695 C60.9729778,64.3075695 65.9739112,61.0453327 68.4816467,56.2682783 C69.8721679,57.2524736 71.5665248,57.836885 73.3989889,57.836885 C78.1077166,57.836885 81.9245627,54.0200389 81.9245627,49.3120381 C81.9245627,44.6033104 78.1077166,40.7864643 73.3989889,40.7864643"></path>
                    </g>
                </g>
                <g id="Page-1" mask="url(#mask-2)">
                    <g transform="translate(140.092593, 124.281467) scale(-1, 1) translate(-140.092593, -124.281467) translate(67.592593, 46.781467)">
                        <path d="M94.5647727,136.085312 C94.5647727,146.007967 102.615332,154.066277 112.553488,154.066277 C122.476599,154.066277 130.534909,146.007967 130.534909,136.085312 C130.534909,126.154907 122.476599,118.103892 112.553488,118.103892 C102.615332,118.103892 94.5647727,126.154907 94.5647727,136.085312" id="Fill-1" fill="#1F2724"></path>
                        <path d="M103.327831,136.085312 C103.327831,141.179091 107.459117,145.309921 112.553351,145.309921 C117.64713,145.309921 121.779327,141.179091 121.779327,136.085312 C121.779327,130.990622 117.64713,126.859792 112.553351,126.859792 C107.459117,126.859792 103.327831,130.990622 103.327831,136.085312" id="Fill-3" fill="#94C4B4"></path>
                        <path d="M107.315541,135.918347 C107.315541,138.798985 109.665008,141.148907 112.553397,141.148907 C115.434491,141.148907 117.776207,138.798985 117.776207,135.918347 C117.776207,133.029957 115.434491,130.680491 112.553397,130.680491 C109.665008,130.680491 107.315541,133.029957 107.315541,135.918347" id="Fill-5" fill="#FFFFFF"></path>
                        <g id="Group-9" stroke-width="1" fill="none" transform="translate(36.475319, 90.690410)">
                            <mask id="mask-4" fill="white">
                                <use xlink:href="#path-3"></use>
                            </mask>
                            <g id="Clip-8"></g>
                            <path d="M48.9052873,24.4646805 C49.3616847,26.3331287 49.0986065,28.3575089 48.8888734,30.5369093 L4.2685562,30.5369093 L9.90609478,43.6511543 L49.5440613,43.6511543 L99.8189056,43.6511543 L107.185552,43.6511543 C107.506079,41.4799609 107.682073,39.2449358 107.682073,36.9574773 C107.682073,16.715043 94.5564289,0.305708769 78.3645788,0.305708769 C43.2507009,0.305708769 41.9143364,-4.15522277 48.9052873,24.4646805 Z" id="Fill-7" fill="#67D5B0" mask="url(#mask-4)"></path>
                        </g>
                        <path d="M69.5877051,11.4755002 C69.5877051,11.4755002 71.0945918,26.625524 73.6022699,26.9487865 C76.1099481,27.272049 78.1069719,27.0408867 79.9580943,28.6385057 C81.8092168,30.2356687 83.8390683,23.8246754 83.8390683,23.8246754 L84.8471549,12.6965115 L79.2764618,6.12730649 L69.5877051,11.4755002 Z" id="Fill-10" fill="#FFDEC5"></path>
                        <polygon id="Fill-12" fill="#67D5B0" points="37.9922365 119.718903 26.9319059 111.381309 37.9922365 62.1442779 45.7468894 62.1442779"></polygon>
                        <polygon id="Fill-14" fill="#1F2724" points="37.0899283 64.7295574 56.9279425 64.7295574 56.9279425 61.7882788 37.0899283 61.7882788"></polygon>
                        <polygon id="Fill-16" fill="#282828" points="49.0059592 64.7295574 56.9279425 64.7295574 56.9279425 61.7882788 49.0059592 61.7882788"></polygon>
                        <path d="M33.0342376,58.2397774 L33.0342376,70.4672163 C36.4154997,70.4672163 39.1516045,67.7311114 39.1516045,64.3503052 C39.1516045,60.9690431 36.4154997,58.2397774 33.0342376,58.2397774" id="Fill-17" fill="#1F2724"></path>
                        <polygon id="Fill-18" fill="#67D5B0" points="32.0257862 70.467581 33.0338728 70.467581 33.0338728 58.2401421 32.0257862 58.2401421"></polygon>
                        <polygon id="Fill-19" fill="#FFDEC5" points="85.2856338 32.442152 79.4491268 33.4210583 78.0101755 24.7951013 83.8393874 23.8266816"></polygon>
                        <path d="M96.3853926,73.4162914 L61.7069389,74.3682972 C58.1027214,74.4672365 55.3771032,77.6652102 55.8508264,81.2397914 L60.4380537,115.867636 L68.0864722,115.867636 L66.0092028,84.0547742 C65.9727274,83.5012612 66.4026803,83.0270821 66.9575611,83.0093004 L95.5587707,82.0737084 L96.3853926,73.4162914 Z" id="Fill-20" fill="#394A63"></path>
                        <path d="M96.5746539,74.371808 L81.5801062,74.5532727 L76.6997085,33.7547163 L87.643672,27.5990503 C94.9136591,41.573201 97.4496057,58.0240259 96.5746539,74.371808" id="Fill-21" fill="#FF7467"></path>
                        <path d="M88.0159483,34.7024819 C88.1221826,32.7168567 86.5988821,31.0107236 84.6055059,30.9049452 C83.0352434,30.821052 81.6482694,31.7534523 81.0801663,33.1481774 C81.0801663,33.1481774 80.8754486,33.8161316 80.8449005,34.0281444 C79.8276951,38.4940913 73.7103281,58.8030931 53.3502609,61.0116737 C53.0794316,61.0413099 53.0849029,63.2357563 53.5855267,65.2291325 C84.4226734,64.1914096 88.0013581,34.8616055 88.0013581,34.8616055 L87.9936071,34.8616055 C88.0013581,34.8087163 88.0086532,34.7631221 88.0159483,34.7024819" id="Fill-22" fill="#FFDEC5"></path>
                        <path d="M60.4227797,115.243361 L47.8460896,118.81931 C47.6938051,118.862168 47.5889386,119.00123 47.5889386,119.159442 L47.5889386,119.824205 L47.5889386,120.68411 C47.5889386,120.879253 47.7471503,121.037465 47.9422932,121.037465 L54.2734968,121.037465 C54.2844394,121.037465 54.2958379,121.037009 54.3067805,121.036097 L61.6729712,120.331668 C61.8808805,120.312062 62.0605215,120.475289 62.0605215,120.68411 C62.0605215,120.879253 62.2187332,121.037465 62.4143321,121.037465 L67.6038581,121.037465 C67.799457,121.037465 67.9576687,120.879253 67.9576687,120.68411 L67.9576687,119.824205 L67.9576687,115.512366 C67.9576687,115.315855 67.7971773,115.157188 67.6002106,115.158547 L60.5157917,115.230138 C60.4843318,115.230594 60.4528718,115.234698 60.4227797,115.243361" id="Fill-23" fill="#FF7467"></path>
                        <path d="M42.7147873,136.085312 C42.7147873,146.007967 34.6642284,154.066277 24.7260717,154.066277 C14.8034171,154.066277 6.74510721,146.007967 6.74510721,136.085312 C6.74510721,126.154907 14.8034171,118.103892 24.7260717,118.103892 C34.6642284,118.103892 42.7147873,126.154907 42.7147873,136.085312" id="Fill-24" fill="#1F2724"></path>
                        <path d="M33.951683,136.085312 C33.951683,141.179091 29.8203972,145.309921 24.7261629,145.309921 C19.6323846,145.309921 15.5001869,141.179091 15.5001869,136.085312 C15.5001869,130.990622 19.6323846,126.859792 24.7261629,126.859792 C29.8203972,126.859792 33.951683,130.990622 33.951683,136.085312" id="Fill-25" fill="#94C4B4"></path>
                        <path d="M29.9642011,135.918347 C29.9642011,138.798985 27.6142787,141.148907 24.7258894,141.148907 C21.845251,141.148907 19.5035355,138.798985 19.5035355,135.918347 C19.5035355,133.029957 21.845251,130.680491 24.7258894,130.680491 C27.6142787,130.680491 29.9642011,133.029957 29.9642011,135.918347" id="Fill-26" fill="#FFFFFF"></path>
                        <path d="M24.7248863,109.583713 C13.4626756,109.583713 3.82863188,116.649439 9.1188298e-05,126.577565 L6.81869617,129.15181 C9.60449867,121.978483 16.5785797,116.878777 24.7248863,116.878777 C34.7323461,116.878777 42.9734885,124.565495 43.8584709,134.341336 L51.1726843,134.341336 C50.2703761,120.539075 38.7564856,109.583713 24.7248863,109.583713" id="Fill-27" fill="#67D5B0"></path>
                        <path d="M100.486218,81.8168766 L134.344623,81.8168766 C136.001477,81.8168766 137.344623,80.4737308 137.344623,78.8168766 L137.344623,44.9589275 C137.344623,43.3020732 136.001477,41.9589275 134.344623,41.9589275 L100.486218,41.9589275 C98.8293635,41.9589275 97.4862178,43.3020732 97.4862178,44.9589275 L97.4862178,78.8168766 C97.4862178,80.4737308 98.8293635,81.8168766 100.486218,81.8168766 Z" id="Fill-28" fill="#FFB769"></path>
                        <polygon id="Fill-29" fill="#F99D41" points="97.4862178 56.4523956 137.344623 56.4523956 137.344623 51.5961628 97.4862178 51.5961628"></polygon>
                        <path d="M113.315366,90.9961186 L83.7375301,90.9961186 C81.2736223,90.9961186 79.2761426,88.998639 79.2761426,86.5351871 C79.2761426,84.0712793 81.2736223,82.0737996 83.7375301,82.0737996 L113.315366,82.0737996 C115.778818,82.0737996 117.776298,84.0712793 117.776298,86.5351871 C117.776298,88.998639 115.778818,90.9961186 113.315366,90.9961186" id="Fill-30" fill="#1F2724"></path>
                        <path d="M74.4000308,9.21047404 C74.4000308,9.21047404 75.3716421,14.2139759 76.3728896,15.7596176 C76.9683492,16.6787956 78.0101755,15.7596176 78.0101755,15.7596176 C78.0101755,15.7596176 81.0481136,13.137954 81.4288248,15.7596176 C81.80908,18.3812812 79.985314,19.9770764 79.985314,19.9770764 C79.985314,19.9770764 80.4690679,23.7841878 81.4808021,24.2173322 C82.4929922,24.6504766 85.9636188,24.5364913 86.4510203,22.9406961 C86.9384217,21.3449008 88.41704,11.8252985 87.3360027,9.97417603 C86.2545095,8.12259764 72.8042356,6.12739768 72.8042356,6.12739768 L74.4000308,9.21047404 Z" id="Fill-33" fill="#1F2724"></path>
                        <path d="M87.6437176,11.3922453 L85.9549104,3.60977996 L81.9904991,0.599654247 L79.8612523,0.599654247 L71.1974522,1.77415953 L68.6277659,7.57419122 C68.6277659,7.57419122 73.1064792,8.8959656 74.8682371,10.6581795 C74.8682371,10.6581795 83.8256636,12.2731242 87.6437176,11.3922453" id="Fill-31" fill="#FF7467"></path>
                        <path d="M68.9719106,6.7974037 L60.2579568,8.3083938 C60.2579568,8.3083938 63.4869344,13.4983758 76.3727528,10.9036128 C76.3727528,10.9036128 70.0971742,6.60226074 68.9719106,6.7974037" id="Fill-32" fill="#FF7467"></path>
                        <path d="M82.4733867,0.710995159 C82.4733867,1.10401672 81.7580145,1.42226388 80.8748559,1.42226388 C79.9921531,1.42226388 79.276325,1.10401672 79.276325,0.710995159 C79.276325,0.318429536 79.9921531,-0.000273564894 80.8748559,-0.000273564894 C81.7580145,-0.000273564894 82.4733867,0.318429536 82.4733867,0.710995159" id="Fill-34" fill="#DD5C50"></path>
                        <path d="M88.475902,34.4054816 C88.452649,33.4393416 88.0901755,32.5224433 87.4377233,31.7943047 C86.7118644,30.9850085 85.7142644,30.5071819 84.6295796,30.4497332 C84.5561731,30.4456298 84.4827665,30.443806 84.4098158,30.443806 C82.7574839,30.443806 81.2847929,31.4377584 80.6441951,33.0144041 C80.6081757,33.132037 80.4276229,33.7284085 80.4007223,33.926743 C80.0273062,35.5644849 78.8933798,39.8156833 76.3551535,44.4503286 L83.1609921,49.2258597 C87.5480611,41.9955396 88.445354,34.9886308 88.4535609,34.916592 L88.5087298,34.4054816 L88.475902,34.4054816 Z" id="Fill-35" fill="#67D5B0"></path>
                        <path d="M53.1352844,60.5815841 L52.2867773,60.0390137 C51.4779371,59.5210642 50.4402143,59.5279033 49.6386692,60.0563395 L48.1418132,61.042085 C47.4465025,61.4998502 47.0653354,62.3086904 47.1556118,63.1366802 L47.2664056,64.1570772 C47.3662568,65.0767112 48.2512392,65.6981595 49.1494439,65.4774838 C50.6335335,65.1127306 52.5708289,65.2818849 53.5852987,65.2289957 C55.2905199,65.140543 53.9527875,62.4586952 53.6176705,61.2349482 C53.5433521,60.964119 53.3719181,60.7329566 53.1352844,60.5815841" id="Fill-36" fill="#FFDEC5"></path>
                    </g>
                </g>
                <polygon id="Rectangle" fill="#67D5B0" opacity="0.200000003" mask="url(#mask-2)" points="-17.2839506 201.184759 304.197531 201.184759 304.197531 285.761317 -17.2839506 285.761317"></polygon>
                <g id="Page-1" mask="url(#mask-2)" fill="#C8F3E4">
                    <g transform="translate(21.933535, 119.104921)">
                        <path d="M34.2284231,24.9292276 C34.2284231,38.6966903 26.5662469,49.8584552 17.1139148,49.8584552 C7.66217617,49.8584552 0,38.6966903 0,24.9292276 C0,11.1611713 7.66217617,0 17.1139148,0 C26.5662469,0 34.2284231,11.1611713 34.2284231,24.9292276" id="Fill-1"></path>
                        <polygon id="Fill-3" points="15.0364791 88.6370559 19.1913504 88.6370559 19.1913504 46.0988903 15.0364791 46.0988903"></polygon>
                    </g>
                </g>
                <g id="Page-1" mask="url(#mask-2)" fill="#C8F3E4">
                    <g transform="translate(217.818308, 119.104921)">
                        <path d="M34.2284231,24.9292276 C34.2284231,38.6966903 26.5662469,49.8584552 17.1139148,49.8584552 C7.66217617,49.8584552 0,38.6966903 0,24.9292276 C0,11.1611713 7.66217617,0 17.1139148,0 C26.5662469,0 34.2284231,11.1611713 34.2284231,24.9292276" id="Fill-1"></path>
                        <polygon id="Fill-3" points="15.0364791 88.6370559 19.1913504 88.6370559 19.1913504 46.0988903 15.0364791 46.0988903"></polygon>
                    </g>
                </g>
            </g>
        </g>
    </g>
</svg>